<?xml version="1.0" encoding="utf-8"?>
<!-- Generator: Adobe Illustrator 16.0.0, SVG Export Plug-In . SVG Version: 6.00 Build 0)  -->
<!DOCTYPE svg PUBLIC "-//W3C//DTD SVG 1.1//EN" "http://www.w3.org/Graphics/SVG/1.1/DTD/svg11.dtd">
<svg version="1.1" id="Capa_1" xmlns="http://www.w3.org/2000/svg" xmlns:xlink="http://www.w3.org/1999/xlink" x="0px" y="0px"
	 width="150px" height="150px" viewBox="0 0 150 150" enable-background="new 0 0 150 150" xml:space="preserve">
<g>
	<g>
		<path fill="#229556" d="M145.35,64.559L98.475,22.362c-5.774-5.193-14.672-4.744-19.865,1.05
			c-5.194,5.766-4.725,14.663,1.05,19.856L99.281,60.94H14.063C6.291,60.94,0,67.231,0,75.002c0,7.772,6.291,14.062,14.063,14.062
			H99.3L79.65,106.736c-5.775,5.203-6.244,14.092-1.051,19.857c2.785,3.084,6.619,4.658,10.463,4.658
			c3.356,0,6.722-1.189,9.403-3.609l46.875-42.178c2.962-2.662,4.659-6.469,4.659-10.453C150,71.028,148.303,67.221,145.35,64.559z"
			/>
	</g>
</g>
</svg>
