<?xml version="1.0" encoding="utf-8"?>
<svg version="1.1" xmlns:xlink="http://www.w3.org/1999/xlink" width="152px" height="152px" xmlns="http://www.w3.org/2000/svg">
  <g transform="matrix(1 0 0 1 -255 -674 )">
    <path d="M 255 674  L 407 674  L 407 826  L 255 826  L 255 674  " fill-rule="nonzero" fill="#cccccc" stroke="none" />
    <path d="M 266 685  L 396 685  L 396 815  L 266 815  L 266 685  " fill-rule="nonzero" fill="#ffffff" stroke="none" />
    <path d="M 345.44 719.6  C 339.056 719.6  334.04 714.584  334.04 708.2  C 334.04 701.816  339.056 696.8  345.44 696.8  C 351.824 696.8  356.84 701.816  356.84 708.2  C 356.84 714.584  351.824 719.6  345.44 719.6  " fill-rule="nonzero" fill="#cccccc" stroke="none" />
    <path d="M 270 811  L 270 743.9  L 300.5 713.4  L 343.2 737.8  L 367.6 731.7  L 392 737.8  L 392 811  L 270 811  " fill-rule="nonzero" fill="#169bd5" stroke="none" />
  </g>
</svg>