<?xml version="1.0" encoding="utf-8"?>
<!-- Generator: Adobe Illustrator 16.0.0, SVG Export Plug-In . SVG Version: 6.00 Build 0)  -->
<!DOCTYPE svg PUBLIC "-//W3C//DTD SVG 1.1//EN" "http://www.w3.org/Graphics/SVG/1.1/DTD/svg11.dtd">
<svg version="1.1" id="Ebene_1" xmlns="http://www.w3.org/2000/svg" xmlns:xlink="http://www.w3.org/1999/xlink" x="0px" y="0px"
	 width="512px" height="512px" viewBox="0 0 512 512" enable-background="new 0 0 512 512" xml:space="preserve">
<g id="_x30_10---Vegan-Symbol">
	<circle id="Oval" fill="#24AE5F" cx="256" cy="256" r="256"/>
	<path id="Shape" fill="#4FBA6F" d="M256,0v512C114.615,512,0,397.385,0,256S114.615,0,256,0z"/>
	<g>
		<path id="Shape_1_" fill="#FFFFFF" d="M250.085,282.482c-27.391-64.426-74.125-118.749-133.737-155.454
			c-7.414-4.818-17.209-3.667-23.305,2.737c-3.379,3.872-4.902,9.024-4.173,14.111c0.729,5.087,3.639,9.604,7.968,12.371
			C186.88,213.098,238.08,302.609,238.08,401.92v29.749c-0.263,9.099,6.211,17.003,15.184,18.538
			c5.135,0.806,10.364-0.691,14.294-4.094s6.16-8.364,6.098-13.562v-30.455c0-58.438,22.422-116.259,66.736-171.961
			c3.254-4.059,4.553-9.347,3.549-14.452s-4.208-9.507-8.758-12.031c-7.878-4.097-17.562-1.937-22.951,5.12
			c-18.15,22.711-33.613,47.446-46.08,73.71c-1.434,3.148-4.574,5.168-8.033,5.168S251.52,285.631,250.085,282.482"/>
		<path id="Shape_2_" fill="#FFFFFF" d="M296.696,230.047c-19.068-20.745-18.803-55.614,1.412-80.419
			c21.274-26.041,98.339-34.869,98.339-34.869s25.07,59.057-5.297,96.309c0,0-22.599,30.367-78.83,27.013L296.696,230.047z"/>
	</g>
</g>
</svg>
