<?xml version="1.0" encoding="utf-8"?>
<!-- Generator: Adobe Illustrator 16.0.0, SVG Export Plug-In . SVG Version: 6.00 Build 0)  -->
<!DOCTYPE svg PUBLIC "-//W3C//DTD SVG 1.1//EN" "http://www.w3.org/Graphics/SVG/1.1/DTD/svg11.dtd">
<svg version="1.1" id="Capa_1" xmlns="http://www.w3.org/2000/svg" xmlns:xlink="http://www.w3.org/1999/xlink" x="0px" y="0px"
	 width="150px" height="150px" viewBox="0 0 150 150" enable-background="new 0 0 150 150" xml:space="preserve">
<g id="_x30_10---Vegan-Symbol">
	<circle id="Oval" fill="#24AE5F" cx="75.084" cy="75.25" r="74.75"/>
	<path id="Shape" fill="#4FBA6F" d="M75.084,0.5V150c-41.284,0-74.75-33.467-74.75-74.75S33.8,0.5,75.084,0.5z"/>
</g>
<path fill="#FFFFFF" d="M116.322,85.108c-3.595-8.507-4.527-17.588-5.43-26.372c-0.959-9.343-1.865-18.168-5.877-25.709
	c-4.737-8.904-12.987-14.308-25.223-16.521C67.146,14.218,54.165,18.35,44.178,27.84c-11.573,11-17.242,27.203-15.162,43.345
	c1.84,14.285,7.884,28.79,16.584,39.796c10.703,13.54,24.308,20.697,39.344,20.697c11.823,0,22.603-5.61,28.833-15.009
	C119.942,107.37,120.87,95.866,116.322,85.108z M102.957,109.496c-3.876,5.848-10.441,9.201-18.013,9.201
	c-25.327,0-40.423-28.754-43.053-49.17c-1.553-12.052,2.646-24.118,11.23-32.277c5.683-5.401,12.727-8.376,19.834-8.376
	c1.516,0,3.039,0.137,4.527,0.406c10.626,1.922,14.17,6.27,16.071,9.843c2.819,5.299,3.563,12.547,4.425,20.94
	c0.953,9.281,2.033,19.8,6.387,30.099C107.188,96.842,106.676,103.889,102.957,109.496z"/>
<path fill="#FFED93" d="M116.322,85.108c-3.595-8.508-4.526-17.59-5.429-26.373c-0.961-9.343-1.866-18.167-5.88-25.708
	c-4.734-8.906-12.984-14.309-25.219-16.521c-1.579-0.284-3.164-0.472-4.746-0.557v13.011c0.817,0.067,1.632,0.173,2.435,0.319
	c10.626,1.922,14.171,6.27,16.069,9.844c2.821,5.297,3.565,12.545,4.427,20.938c0.952,9.281,2.033,19.802,6.387,30.1
	c2.821,6.68,2.309,13.726-1.409,19.333c-3.876,5.848-10.441,9.202-18.012,9.202c-3.495,0-6.797-0.548-9.896-1.547v13.453
	c3.217,0.715,6.521,1.075,9.896,1.075c11.821,0,22.603-5.61,28.831-15.009C119.943,107.371,120.869,95.866,116.322,85.108z"/>
<path fill="#FF6339" d="M78.639,22.893c-24.371-4.408-46.727,19.965-43.186,47.463c3.155,24.492,20.986,54.832,49.491,54.832
	c19.981,0,33.341-18.766,25.399-37.553C98.65,59.97,112.67,29.048,78.639,22.893z"/>
<path fill="#EB1800" d="M84.945,125.187c-3.46,0-6.762-0.445-9.896-1.277V22.448c1.189,0.079,2.388,0.226,3.589,0.445
	c34.031,6.155,20.013,37.075,31.705,64.74C118.285,106.422,104.926,125.187,84.945,125.187z"/>
<circle fill="#FFED93" cx="90.589" cy="89.071" r="10.559"/>
</svg>
