<?xml version="1.0" encoding="utf-8"?>
<!-- Generator: Adobe Illustrator 16.0.0, SVG Export Plug-In . SVG Version: 6.00 Build 0)  -->
<!DOCTYPE svg PUBLIC "-//W3C//DTD SVG 1.1//EN" "http://www.w3.org/Graphics/SVG/1.1/DTD/svg11.dtd">
<svg version="1.1" id="Capa_1" xmlns="http://www.w3.org/2000/svg" xmlns:xlink="http://www.w3.org/1999/xlink" x="0px" y="0px"
	 width="150px" height="150px" viewBox="0 0 150 150" enable-background="new 0 0 150 150" xml:space="preserve">
<g>
	<g>
		<path fill="#009FE3" d="M75,0C33.645,0,0,33.645,0,75s33.645,75,75,75s75-33.645,75-75S116.355,0,75,0z M75,139.285
			c-35.448,0-64.286-28.837-64.286-64.285S39.552,10.714,75,10.714S139.285,39.552,139.285,75S110.448,139.285,75,139.285z"/>
	</g>
</g>
<g>
	<g>
		<path fill="#009FE3" d="M75,39.286c-2.959,0-5.357,2.398-5.357,5.357v60.714c0,2.959,2.398,5.357,5.357,5.357
			s5.357-2.398,5.357-5.357V44.643C80.357,41.684,77.959,39.286,75,39.286z"/>
	</g>
</g>
<g>
	<g>
		<path fill="#009FE3" d="M105.357,69.643H44.643c-2.959,0-5.357,2.398-5.357,5.357s2.398,5.357,5.357,5.357h60.714
			c2.959,0,5.357-2.398,5.357-5.357S108.316,69.643,105.357,69.643z"/>
	</g>
</g>
</svg>
