<?xml version="1.0" encoding="utf-8"?>
<!-- Generator: Adobe Illustrator 16.0.0, SVG Export Plug-In . SVG Version: 6.00 Build 0)  -->
<!DOCTYPE svg PUBLIC "-//W3C//DTD SVG 1.1//EN" "http://www.w3.org/Graphics/SVG/1.1/DTD/svg11.dtd">
<svg version="1.1" id="Capa_1" xmlns="http://www.w3.org/2000/svg" xmlns:xlink="http://www.w3.org/1999/xlink" x="0px" y="0px"
	 width="150px" height="150px" viewBox="0 0 150 150" enable-background="new 0 0 150 150" xml:space="preserve">
<path fill="#00734D" d="M66.977,20.033L66.977,20.033c0-2.097-1.701-3.797-3.798-3.797H17.217c-2.097,0-3.798,1.7-3.798,3.797v1.469
	c0,1.698-1.377,3.076-3.075,3.076l0,0c-2.098,0-3.798,1.7-3.798,3.797v35.589h132.907V24.578H71.521
	C69.011,24.578,66.977,22.543,66.977,20.033z"/>
<rect x="14.972" y="31.952" fill="#F7F7F7" width="120.94" height="62.3"/>
<path fill="#00844D" d="M142.405,133.764H7.595c-4.194,0-7.595-3.4-7.595-7.594V45.454c0-4.195,3.4-7.595,7.595-7.595H89.15
	c3.119,0,5.922-1.907,7.066-4.809l3.693-9.369c1.145-2.902,3.946-4.809,7.065-4.809h35.429c4.195,0,7.596,3.4,7.596,7.595v99.704
	C150,130.363,146.6,133.764,142.405,133.764z"/>
</svg>
