<?xml version="1.0" encoding="utf-8"?>
<!-- Generator: Adobe Illustrator 16.0.0, SVG Export Plug-In . SVG Version: 6.00 Build 0)  -->
<!DOCTYPE svg PUBLIC "-//W3C//DTD SVG 1.1//EN" "http://www.w3.org/Graphics/SVG/1.1/DTD/svg11.dtd">
<svg version="1.1" id="Capa_1" xmlns="http://www.w3.org/2000/svg" xmlns:xlink="http://www.w3.org/1999/xlink" x="0px" y="0px"
	 width="150px" height="150px" viewBox="0 0 150 150" enable-background="new 0 0 150 150" xml:space="preserve">
<g>
	<g>
		<path fill="#00844D" d="M148.679,29.801L103.188,75l45.491,45.199c0.822-1.719,1.321-3.619,1.321-5.648V35.449
			C150,33.42,149.501,31.52,148.679,29.801z"/>
	</g>
</g>
<g>
	<g>
		<path fill="#00844D" d="M136.816,22.266H13.184c-2.029,0-3.929,0.499-5.648,1.321l58.143,57.851
			c5.141,5.141,13.501,5.141,18.643,0l58.144-57.851C140.746,22.765,138.846,22.266,136.816,22.266z"/>
	</g>
</g>
<g>
	<g>
		<path fill="#00844D" d="M1.321,29.801C0.499,31.52,0,33.42,0,35.449v79.102c0,2.029,0.499,3.93,1.321,5.648L46.813,75
			L1.321,29.801z"/>
	</g>
</g>
<g>
	<g>
		<path fill="#00844D" d="M96.973,81.215l-6.438,6.437c-8.566,8.566-22.504,8.566-31.071,0l-6.437-6.437L7.536,126.413
			c1.719,0.822,3.619,1.321,5.648,1.321h123.633c2.029,0,3.93-0.499,5.648-1.321L96.973,81.215z"/>
	</g>
</g>
</svg>
