<?xml version="1.0" encoding="utf-8"?>
<!-- Generator: Adobe Illustrator 16.0.0, SVG Export Plug-In . SVG Version: 6.00 Build 0)  -->
<!DOCTYPE svg PUBLIC "-//W3C//DTD SVG 1.1//EN" "http://www.w3.org/Graphics/SVG/1.1/DTD/svg11.dtd">
<svg version="1.1" id="Layer_1" xmlns="http://www.w3.org/2000/svg" xmlns:xlink="http://www.w3.org/1999/xlink" x="0px" y="0px"
	 width="150px" height="150px" viewBox="0 0 150 150" enable-background="new 0 0 150 150" xml:space="preserve">
<path fill="#E8E8E8" d="M150,143.379L110.121,103.5c9.459-10.977,15.186-25.255,15.186-40.847C125.306,28.106,97.2,0,62.653,0
	C28.106,0,0,28.106,0,62.653c0,34.547,28.106,62.653,62.653,62.653c15.592,0,29.87-5.727,40.847-15.186L143.379,150L150,143.379z
	 M9.363,62.653c0-29.384,23.906-53.29,53.29-53.29c29.384,0,53.29,23.906,53.29,53.29c0,29.384-23.906,53.29-53.29,53.29
	C33.269,115.943,9.363,92.037,9.363,62.653z"/>
</svg>
